<svg width="900" height="600" viewBox="0 0 900 600" xmlns="http://www.w3.org/2000/svg" role="img" aria-label="Odaa Password Manager project cover">
  <defs>
    <linearGradient id="mgE" x1="0" y1="0" x2="1" y2="1">
      <stop offset="0" stop-color="#0d1424"/>
      <stop offset="1" stop-color="#070b14"/>
    </linearGradient>
    <pattern id="gridE" width="36" height="36" patternUnits="userSpaceOnUse">
      <path d="M36 0H0V36" fill="none" stroke="#ffffff" stroke-opacity="0.045" stroke-width="1"/>
    </pattern>
  </defs>
  <rect width="900" height="600" fill="url(#mgE)"/>
  <rect width="900" height="600" fill="url(#gridE)"/>
  <circle cx="760" cy="470" r="230" fill="#f2b134" fill-opacity="0.09"/>
  <g transform="translate(590,110)">
    <rect x="0" y="60" width="220" height="180" rx="20" fill="#0f1830" stroke="#f2b134" stroke-opacity="0.55" stroke-width="2"/>
    <rect x="20" y="80" width="180" height="140" rx="10" fill="#0a1122"/>
    <circle cx="110" cy="130" r="26" fill="none" stroke="#5fd4d4" stroke-width="4"/>
    <rect x="98" y="152" width="24" height="34" rx="6" fill="#5fd4d4" fill-opacity="0.6"/>
    <rect x="40" y="196" width="140" height="8" rx="4" fill="#f2b134" fill-opacity="0.5"/>
    <path d="M0 60 V30 a35 35 0 0 1 70 0 V60" fill="none" stroke="#f2b134" stroke-width="8" stroke-opacity="0.7"/>
  </g>
  <g font-family="'JetBrains Mono', monospace" fill="#93a0bd">
    <text x="70" y="90" font-size="15" letter-spacing="3" fill="#f2b134">// PASSWORD VAULT</text>
    <text x="70" y="140" font-size="44" fill="#eef2fb" font-weight="700">Odaa</text>
    <text x="70" y="176" font-size="16">Dart &#183; Flutter &#183; AES</text>
  </g>
  <g transform="translate(70,220)" font-family="'JetBrains Mono', monospace" font-size="13" fill="#5fd4d4">
    <text y="0">$ odaa vault --unlock</text>
    <text y="22" fill="#93a0bd">&#8250; key derived client-side</text>
    <text y="44" fill="#93a0bd">&#8250; zero-knowledge, offline</text>
  </g>
</svg>
